<svg xmlns="http://www.w3.org/2000/svg" viewBox="0 0 64 64" width="64" height="64">
  <rect width="64" height="64" rx="12" fill="#1a1a1a"/>
  <g fill="#e11d2a">
    <path d="M20 18c-3 0-5 3-5 7 0 2 .5 4 1.5 6-2 2-3.5 5-3.5 9 0 5 4 8 9 8h6l3-4 3 4h6c5 0 9-3 9-8 0-4-1.5-7-3.5-9 1-2 1.5-4 1.5-6 0-4-2-7-5-7-2 0-3.5 1.5-4.5 3.5C42 15 38 13 32 13s-10 2-11.5 8.5C19.5 19.5 22 18 20 18z"/>
  </g>
  <circle cx="26" cy="34" r="2.5" fill="#1a1a1a"/>
  <circle cx="38" cy="34" r="2.5" fill="#1a1a1a"/>
</svg>
